# AST/ASF file generated using VICON BodyLanguage
# -----------------------------------------------
:version 1.10
:name VICON
:units
  mass 1.0
  length 0.45
  angle deg
:documentation
   .ast/.asf automatically generated from VICON data using
   VICON BodyBuilder and BodyLanguage model FoxedUp or BRILLIANT.MOD
:root
   order TX TY TZ RX RY RZ
   axis XYZ
   position 0 0 0  
   orientation 0 0 0 
:bonedata
  begin
     id 1 
     name lhipjoint
     direction 0.635376 -0.686425 0.353719 
     length 2.47244 
     axis 0 0 0  XYZ
  end
  begin
     id 2 
     name lfemur
     direction 0.34202 -0.939693 0  
     length 7.25268  
     axis 0 0 20  XYZ
    dof rx ry rz
    limits (-160.0 20.0)
           (-70.0 70.0)
           (-60.0 70.0)
  end
  begin
     id 3 
     name ltibia
     direction 0.34202 -0.939693 0   
     length 7.6767   
     axis 0 0 20   XYZ
    dof rx
    limits (-10.0 170.0)
  end
  begin
     id 4 
     name lfoot
     direction 0.0803374 -0.220725 0.972022   
     length 2.22945   
     axis -90 7.62852e-016 20   XYZ
    dof rx rz
    limits (-45.0 90.0)
           (-70.0 20.0)
  end
  begin
     id 5 
     name ltoes
     direction 1.53579e-011 -4.21994e-011 1   
     length 1.11848   
     axis -90 7.62852e-016 20   XYZ
    dof rx
    limits (-90.0 20.0)
  end
  begin
     id 6 
     name rhipjoint
     direction -0.664428 -0.664335 0.342336   
     length 2.55466  
     axis 0 0 0  XYZ 
  end
  begin
     id 7 
     name rfemur
     direction -0.34202 -0.939693 0   
     length 6.83172   
     axis 0 0 -20   XYZ
    dof rx ry rz
    limits (-160.0 20.0)
           (-70.0 70.0)
           (-70.0 60.0)
  end
  begin
     id 8 
     name rtibia
     direction -0.34202 -0.939693 0   
     length 7.62692   
     axis 0 0 -20   XYZ
    dof rx
    limits (-10.0 170.0)
 end
 begin
     id 9 
     name rfoot
     direction -0.0949276 -0.260811 0.960711   
     length 2.19684  
     axis -90 -7.62852e-016 -20   XYZ
    dof rx rz
    limits (-45.0 90.0)
           (-20.0 70.0)
  end
  begin
     id 10 
     name rtoes
     direction -1.53543e-011 -4.2183e-011 1   
     length 1.09848   
     axis -90 -7.62852e-016 -20   XYZ
    dof rx
    limits (-90.0 20.0)
  end
  begin
     id 11 
     name lowerback
     direction 0.0118782 0.999815 -0.0151555   
     length 2.15772   
     axis 0 0 0   XYZ
    dof rx ry rz
    limits (-20.0 45.0)
           (-30.0 30.0)
           (-30.0 30.0)
  end
  begin
     id 12 
     name upperback
     direction 0.00130825 0.999065 0.0432113   
     length 2.14863   
     axis 0 0 0   XYZ
    dof rx ry rz
    limits (-20.0 45.0)
           (-30.0 30.0)
           (-30.0 30.0)
  end
  begin
     id 13 
     name thorax
     direction -0.00347005 0.998773 0.0494011   
     length 2.14936   
     axis 0 0 0   XYZ
    dof rx ry rz
    limits (-20.0 45.0)
           (-30.0 30.0)
           (-30.0 30.0)
  end
  begin
     id 14 
     name lowerneck
     direction -0.0262159 0.99424 0.103921   
     length 1.69373   
     axis 0 0 0   XYZ
    dof rx ry rz
    limits (-20.0 45.0)
           (-30.0 30.0)
           (-30.0 30.0)
  end
  begin
     id 15 
     name upperneck
     direction 0.0353511 0.977394 -0.20845   
     length 1.70857   
     axis 0 0 0   XYZ
    dof rx ry rz
    limits (-20.0 45.0)
           (-30.0 30.0)
           (-30.0 30.0)
  end
  begin
     id 16
     name head
     direction 0.0139214 0.996594 -0.0812836  
     length 1.72777  
     axis 0 0 0   XYZ
    dof rx ry rz
    limits (-20.0 45.0)
           (-30.0 30.0)
           (-30.0 30.0)
  end
  begin
     id 17 
     name lclavicle
     direction 0.841247 0.537205 -0.0609508  
     length 3.55371  
     axis 0 0 0   XYZ
    dof ry rz
    limits (-20.0 10.0)
           (0.0 20.0)
  end
  begin
     id 18 
     name lhumerus
     direction 1 -4.48964e-011 1.60116e-018   
     length 4.91377   
     axis -180 -30 -90   XYZ
    dof rx ry rz
    limits (-60.0 90.0)
           (-90.0 90.0)
           (-90.0 90.0)
  end
  begin
     id 19
     name lradius
     direction 1 -4.48989e-011 -8.93847e-027   
     length 3.00291   
     axis -180 -30 -90   XYZ
    dof rx
    limits (-10.0 170.0)
  end
  begin
     id 20
     name lwrist
     direction 1 -4.48932e-011 -7.31504e-027   
     length 1.50145   
     axis 5.74121e-015 90 90   XYZ
    dof ry
    limits (-180.0 0.0)
 end
  begin
     id 21 
     name lhand
     direction 1 -4.48971e-011 -1.46301e-026   
     length 0.450922   
     axis 9.33524e-015 90 90   XYZ
    dof rx rz
    limits (-90.0 90.0)
           (-45.0 45.0)
  end
  begin
     id 22 
     name lfingers
     direction 1 -4.49039e-011 -2.92602e-026   
     length 0.363545   
     axis 1.86705e-014 90 90   XYZ
    dof rx
    limits (0.0 90.0)
  end
  begin
     id 23
     name lthumb
     direction 0.707107 -6.34941e-011 0.707107   
     length 0.52198   
     axis -90 45 2.85299e-015   XYZ
    dof rx rz
    limits (-45.0 45.0)
           (-45.0 45.0)
  end
  begin
     id 24 
     name rclavicle
     direction -0.825079 0.56158 -0.0622297   
     length 3.39909  
     axis 0 0 0   XYZ 
    dof ry rz
    limits (-10.0 20.0)
           (-20.0 0.0)
  end
  begin
     id 25 
     name rhumerus
     direction -1 -4.48965e-011 1.61691e-027  
     length 4.86725   
     axis -180 30 90   XYZ
    dof rx ry rz
    limits (-90.0 60.0)
           (-90.0 90.0)
           (-90.0 90.0)
  end
  begin
     id 26 
     name rradius
     direction -1 -4.48964e-011 -2.25776e-027   
     length 3.17144   
     axis -180 30 90   XYZ
    dof rx
    limits (-10.0 170.0)
  end
  begin
     id 27 
     name rwrist
     direction -1 -4.48961e-011 -7.31504e-027   
     length 1.58572   
     axis 5.74121e-015 -90 -90   XYZ
    dof ry
    limits (-180.0 0.0)
  end
  begin
     id 28
     name rhand
     direction -1 -4.49013e-011 -1.46301e-026   
     length 0.419368   
     axis 9.33524e-015 -90 -90   XYZ
    dof rx rz
    limits (-90.0 90.0)
           (-45.0 45.0)
  end
  begin
     id 29
     name rfingers
     direction -1 -4.489e-011 -2.92602e-026   
     length 0.338105   
     axis 1.86705e-014 -90 -90   XYZ
    dof rx
    limits (0.0 90.0)
  end
  begin
     id 30
     name rthumb
     direction -0.707107 -6.35022e-011 0.707107   
     length 0.485453   
     axis -90 -45 -2.85299e-015   XYZ
    dof rx rz
    limits (-45.0 45.0)
           (-45.0 45.0)
  end
:hierarchy
  begin
    root lhipjoint rhipjoint lowerback
    lhipjoint lfemur
    lfemur ltibia
    ltibia lfoot
    lfoot ltoes
    rhipjoint rfemur
    rfemur rtibia
    rtibia rfoot
    rfoot rtoes
    lowerback upperback
    upperback thorax
    thorax lowerneck lclavicle rclavicle
    lowerneck upperneck
    upperneck head
    lclavicle lhumerus
    lhumerus lradius
    lradius lwrist
    lwrist lhand lthumb
    lhand lfingers
    rclavicle rhumerus
    rhumerus rradius
    rradius rwrist
    rwrist rhand rthumb
    rhand rfingers
  end

#!OML:ASF H:\Swim 2\Project 1\Capture day 1\Session 1\male.ASF
:FULLY-SPECIFIED
:DEGREES
787
root -0.408786 15.2235 9.85072 108.72 -39.9244 -7.80179
lowerback -29.0467 5.40165 11.8305
upperback 1.6498 4.51203 -8.08788
thorax 19.4321 3.75373 -14.0657
lowerneck -16.5838 -0.557332 -6.60659
upperneck 6.11108 -0.412385 10.2429
head 4.56437 0.292729 4.25882
rclavicle -3.95581e-014 2.33572e-015
rhumerus 92.9762 -21.612 -33.9016
rradius 31.5484
rwrist -0.978306
rhand -39.4016 2.60885
rfingers 7.12502
rthumb -12.3909 -27.0039
lclavicle -3.95581e-014 2.33572e-015
lhumerus 470.94 9.47992 -304.018
lradius 12.0694
lwrist -13.6058
lhand -43.6401 -50.8261
lfingers 7.12502
lthumb -16.4747 -21.5056
rfemur -50.202 2.26833 26.8378
rtibia 53.245
rfoot 13.1696 -7.39814
rtoes 14.6631
lfemur -55.2536 6.03052 -25.5204
ltibia 61.4192
lfoot 26.0836 -2.9932
ltoes 19.0724
788
root -0.422677 15.2132 9.87652 108.902 -39.8841 -7.88131
lowerback -29.2438 5.50306 11.8013
upperback 1.50275 4.62531 -8.03115
thorax 19.3666 3.7735 -13.9034
lowerneck -16.4423 -0.608261 -6.51356
upperneck 5.51236 -0.454088 10.1082
head 4.36013 0.255054 4.18761
rclavicle -6.32135e-014 -8.77137e-015
rhumerus 92.9639 -21.7584 -33.9011
rradius 31.3181
rwrist -0.206844
rhand -38.7925 2.4422
rfingers 7.12502
rthumb -11.8035 -27.2052
lclavicle -6.32135e-014 -8.77137e-015
lhumerus 472.173 7.81859 -300.732
lradius 10.3666
lwrist -17.5969
lhand -43.7245 -51.6522
lfingers 7.12502
lthumb -16.556 -22.3385
rfemur -49.5107 2.27784 26.8959
rtibia 50.9661
rfoot 12.9302 -7.34532
rtoes 14.8422
lfemur -54.9118 5.53932 -25.2619
ltibia 59.5373
lfoot 26.2065 -3.17739
ltoes 18.9609
789
root -0.435303 15.2024 9.9015 109.046 -39.8368 -7.95139
lowerback -29.4134 5.61418 11.7972
upperback 1.37446 4.74785 -7.9825
thorax 19.3179 3.80421 -13.7639
lowerneck -16.3243 -0.673276 -6.4669
upperneck 4.9519 -0.514746 10.0483
head 4.17418 0.212323 4.14806
rclavicle 3.26007e-014 5.77469e-014
rhumerus 92.8648 -21.9912 -33.8119
rradius 31.1193
rwrist 0.401711
rhand -38.166 2.42411
rfingers 7.12502
rthumb -11.1994 -27.257
lclavicle 3.26007e-014 5.77469e-014
lhumerus 473.969 2.36989 -288.95
lradius 8.56336
lwrist -30.8697
lhand -43.6057 -52.7518
lfingers 7.12502
lthumb -16.4416 -23.4285
rfemur -48.8472 2.27387 26.9661
rtibia 48.7737
rfoot 12.5831 -7.28868
rtoes 14.8611
lfemur -54.5907 5.06668 -25.0025
ltibia 57.6532
lfoot 26.3596 -3.3163
ltoes 19.1314
790
root -0.446244 15.1913 9.92532 109.144 -39.789 -8.00496
lowerback -29.5459 5.71621 11.8085
upperback 1.26854 4.85934 -7.94706
thorax 19.2791 3.83637 -13.6583
lowerneck -16.2325 -0.732927 -6.4177
upperneck 4.39146 -0.571394 10.0253
head 3.99284 0.174035 4.12111
rclavicle 1.64991e-014 5.07025e-014
rhumerus 92.7086 -22.3051 -33.6589
rradius 30.9464
rwrist 0.889599
rhand -37.5718 2.49821
rfingers 7.12502
rthumb -10.6262 -27.2131
lclavicle 1.64991e-014 5.07025e-014
lhumerus 474.558 -3.42574 -277.41
lradius 6.68077
lwrist -44.4878
lhand -44.417 -54.2734
lfingers 7.12502
lthumb -17.2226 -25.0166
rfemur -48.2241 2.24833 27.0483
rtibia 46.7217
rfoot 12.0905 -7.29158
rtoes 14.601
lfemur -54.2935 4.6149 -24.749
ltibia 55.7941
lfoot 26.5187 -3.42288
ltoes 19.6341
791
root -0.4551 15.1804 9.94782 109.195 -39.755 -8.03967
lowerback -29.6407 5.79205 11.8231
upperback 1.18692 4.93862 -7.91311
thorax 19.2422 3.85786 -13.5754
lowerneck -16.1898 -0.781954 -6.38877
upperneck 3.85071 -0.609955 10.016
head 3.82428 0.146203 4.10459
rclavicle -6.39093e-014 -3.13334e-014
rhumerus 92.6042 -22.6154 -33.5482
rradius 30.7233
rwrist 1.46047
rhand -37.0872 2.79238
rfingers 7.12502
rthumb -10.1588 -26.9424
lclavicle -6.39093e-014 -3.13334e-014
lhumerus 473.883 -9.27455 -265.859
lradius 4.95791
lwrist -58.1684
lhand -45.4694 -55.8547
lfingers 7.12502
lthumb -18.2353 -26.6894
rfemur -47.6598 2.19548 27.1274
rtibia 44.865
rfoot 11.4185 -7.39605
rtoes 14.0628
lfemur -54.0269 4.18437 -24.5181
ltibia 53.9917
lfoot 26.6664 -3.55821
ltoes 20.3178
792
root -0.462536 15.17 9.96968 109.196 -39.7306 -8.0588
lowerback -29.6894 5.84114 11.8427
upperback 1.12724 4.98451 -7.87702
thorax 19.1993 3.86736 -13.5125
lowerneck -16.1519 -0.811163 -6.36012
upperneck 3.24503 -0.615826 9.98726
head 3.63404 0.132447 4.08444
rclavicle 3.77691e-015 7.76937e-014
rhumerus 92.5537 -22.9109 -33.4655
rradius 30.4628
rwrist 2.12418
rhand -36.7167 3.17829
rfingers 7.12502
rthumb -9.80129 -26.5736
lclavicle 3.77691e-015 7.76937e-014
lhumerus 471.887 -14.8944 -254.038
lradius 3.60986
lwrist -71.5891
lhand -46.2134 -56.9706
lfingers 7.12502
lthumb -18.9509 -27.8738
rfemur -47.1774 2.10246 27.2262
rtibia 43.2559
rfoot 10.624 -7.50904
rtoes 12.8415
lfemur -53.7859 3.78345 -24.3079
ltibia 52.2807
lfoot 26.7897 -3.69893
ltoes 21.0352
